<svg xmlns="http://www.w3.org/2000/svg" xmlns:xlink="http://www.w3.org/1999/xlink" width="55" height="40" viewBox="0 0 55 40">
  <defs>
    <clipPath id="clip-path">
      <rect id="Rectangle_19" data-name="Rectangle 19" width="55" height="40" transform="translate(776 5909)" fill="#fff" stroke="#707070" stroke-width="1"/>
    </clipPath>
  </defs>
  <g id="Mask_Group_2" data-name="Mask Group 2" transform="translate(-776 -5909)" clip-path="url(#clip-path)">
    <path id="twitter-svgrepo-com" d="M46.149,15.355a17.527,17.527,0,0,1-2.284.861,10.544,10.544,0,0,0,2.055-3.74.8.8,0,0,0-.251-.856.741.741,0,0,0-.863-.061,17.624,17.624,0,0,1-5.313,2.172,10.012,10.012,0,0,0-7.1-2.992A10.328,10.328,0,0,0,22.262,21.226a11.063,11.063,0,0,0,.083,1.355A25.7,25.7,0,0,1,4.533,12.8a.749.749,0,0,0-.65-.288.759.759,0,0,0-.6.389,10.8,10.8,0,0,0,1.04,12.072,8.447,8.447,0,0,1-1.357-.627.739.739,0,0,0-.748.005.793.793,0,0,0-.383.666c0,.046,0,.093,0,.14A10.6,10.6,0,0,0,6.8,34.181q-.387-.04-.771-.116a.746.746,0,0,0-.713.252.808.808,0,0,0-.155.763,10.271,10.271,0,0,0,7.425,7.03A17.491,17.491,0,0,1,3,44.94a17.725,17.725,0,0,1-2.147-.13.761.761,0,0,0-.806.517.8.8,0,0,0,.306.929,26.673,26.673,0,0,0,14.782,4.483,25.948,25.948,0,0,0,20.375-9.259,29.938,29.938,0,0,0,7.061-19.127c0-.288,0-.578-.013-.868a20.119,20.119,0,0,0,4.535-4.97.81.81,0,0,0-.05-.945A.744.744,0,0,0,46.149,15.355Z" transform="translate(779.891 5898.262)" fill="#fff"/>
  </g>
</svg>
